# xmcd
#
# Track frame offsets: 
#        150
#        17910
#        46663
#        64643
#        81283
#        93442
#        115583
#        138204
#
# Disc length: 2487 seconds
#
# Revision: 0
# Processed by: cddbd v1.5.2PL0 Copyright (c) Steve Scherf et al.
# Submitted via: ExactAudioCopy v1.0b4
#
DISCID=5a09b508
DTITLE=Charlie Musselwhite - Takin' My Time (LP)
DYEAR=1971
DGENRE=Blues
TTITLE0=It Ain' t Right
TTITLE1=Love Me Or Leave Me
TTITLE2=Love Me Or Leave Me
TTITLE3=Two Little Girls
TTITLE4=Up And Down The Avenue
TTITLE5=Up And Down The Avenue
TTITLE6=Wild, Wild Woman
TTITLE7=Takin' My Time
EXTD=
EXTT0=
EXTT1=
EXTT2=
EXTT3=
EXTT4=
EXTT5=
EXTT6=
EXTT7=
PLAYORDER=
